<svg xmlns="http://www.w3.org/2000/svg" viewBox="0 0 48 48" width="48px" height="48px">
  <path fill="#007bb5" d="M42,37c0,2.762-2.238,5-5,5H11c-2.761,0-5-2.238-5-5V11c0-2.762,2.239-5,5-5h26c2.762,0,5,2.238,5,5V37z"/>
  <path fill="#fff" d="M12 19H17V36H12zM14.485 17h-.028C12.965 17 12 15.888 12 14.499 12 13.08 12.995 12 14.528 12c1.533 0 2.47 1.08 2.498 2.499C17.026 15.887 16.088 17 14.485 17zM36 36h-5v-9.099c0-2.198-1.225-3.241-2.834-3.241-1.63 0-2.43 1.107-2.834 2.052C25.185 26.115 25 26.786 25 27.5V36h-5c0 0 .066-15.42 0-17h5v2.417c.567-1.077 1.954-2.584 4.542-2.584 3.32 0 5.458 2.215 5.458 6.966V36z"/>
</svg>
