<svg xmlns="http://www.w3.org/2000/svg" viewBox="0 0 48 48" width="48px" height="48px">
  <path fill="#000" d="M24,4C12.954,4,4,12.954,4,24s8.954,20,20,20s20-8.954,20-20S35.046,4,24,4z"/>
  <path fill="#fff" d="M24,14.5c-4.577,0-7.394,3.228-7.394,8.232v2.536c0,5.004,2.817,8.232,7.394,8.232 c4.437,0,7.183-3.087,7.394-7.81h-3.169c-0.141,2.887-1.62,4.86-4.225,4.86c-2.746,0-4.225-2.042-4.225-5.281v-1.127h11.62 c0.07-0.493,0.141-1.127,0.141-1.831c0-4.859-2.535-7.81-7.535-7.81zm-4.225,6.76c0.423-2.606,1.972-3.803,4.225-3.803 c2.183,0,3.873,1.197,4.225,3.803h-8.45z"/>
  <path fill="#fff" d="M34,24c0,3.873-1.62,6.549-4.789,7.535V28.5C30.479,27.796,31,26.176,31,24c0-2.183-0.521-3.796-1.789-4.5v-3.035 C32.38,17.451,34,20.127,34,24z"/>
</svg>
